<?xml version="1.0" encoding="utf-8"?>
<!-- Generator: Adobe Illustrator 24.2.0, SVG Export Plug-In . SVG Version: 6.00 Build 0)  -->
<svg version="1.1" id="Layer_1" xmlns="http://www.w3.org/2000/svg" xmlns:xlink="http://www.w3.org/1999/xlink" x="0px" y="0px"
	 viewBox="0 0 445 128.8" style="enable-background:new 0 0 445 128.8;" xml:space="preserve">
<style type="text/css">
	.st0{fill:#FFFFFF;}
	.st1{fill:#3C034F;}
</style>
<polygon class="st0" points="401.6,102.4 402.9,91.8 401.2,85.1 372.3,85.1 370.6,91.8 371.9,102.4 336.2,102.4 341.5,91.8 
	362,20.5 360.7,9.9 412.9,9.9 411.6,20.5 432.1,91.8 437.4,102.4 "/>
<path class="st0" d="M254,77.4c0,4.5-1.7,8.6-4.9,11.8l-9.1,9.1c-3.2,3.2-7.3,4.9-11.6,4.9h-58.9l2.6-10.4V21.4l-2.6-10.7h58.9
	c2.6,0,5.2,0.6,7.5,1.7c1.5,0.8,2.9,1.8,4.2,3l9.1,9.2c3.2,3.2,4.9,7.3,4.9,11.8L254,77.4L254,77.4z"/>
<g>
	<polygon class="st1" points="378.1,64.3 395.5,64.3 386.8,31 	"/>
	<path class="st1" d="M215.5,33.9h-14.4v46.2h14.4c5.4,0,9.4-4,9.4-9.4V43.3C224.9,37.8,220.9,33.9,215.5,33.9z"/>
</g>
<g>
	<g>
		<path class="st1" d="M436.3,91.3l-19.9-70l1.7-15.5H310.8l-12.3,12.7v12.2l-4.9-10.3l0.5-14.5h-51.6l-3.2,3.2
			c-3.4-2.1-7.4-3.2-11.6-3.2H119l-7.9,9.3L103.5,7C99,2.3,92.8,0,86.4,0H14L0,14.4l4.5,18.2V110l-4.4,18.8h72.2l16.4-6.4h343.1
			l13.2-13.5L436.3,91.3z M115.5,79.1c0,5-1.9,9.5-5.4,13L100,102.2c-3.5,3.5-8,5.4-12.8,5.4H22L25,96V17.2L23.2,10L22,5.4h65.1
			c1.5,0,2.9,0.2,4.2,0.5c1.6,0.3,3.1,0.9,4.5,1.7l-1.7,3.2L81.9,34L66.2,63.7l-2,3.8L51.5,46.1l-11.2,6.6l18.6,31.4l11.4-0.3l2-3.8
			l17.6-33L106,16.8l4,4.1c3.5,3.5,5.4,8,5.4,13L115.5,79.1z M160.6,103.2h-34.3l2.5-10.6V21.1l-2.5-10.3h34.3L158,21.2v71.4
			L160.6,103.2z M254,77.5c0,4.5-1.7,8.6-4.9,11.8l-9.1,9.1c-3.2,3.2-7.3,4.9-11.6,4.9h-58.9l2.6-10.4V21.5l-2.6-10.7h58.9
			c2.6,0,5.2,0.6,7.5,1.7c1.5,0.8,2.9,1.8,4.2,3l9.1,9.2c3.2,3.2,4.9,7.3,4.9,11.8L254,77.5L254,77.5z M285.7,103.2l2.6-10.6V77.3
			l-29.5-56l-6.6-10.6H289l-0.4,10.6l14.3,30l14.1-30l-0.4-10.6h36.6l-6.6,10.6L317.4,77v15.6l2.7,10.6H285.7z M401.6,103.2
			l1.3-10.6l-1.7-6.7h-28.9l-1.7,6.7l1.3,10.6h-35.7l5.3-10.6L362,21.3l-1.3-10.6h52.2l-1.3,10.6l20.5,71.3l5.3,10.6H401.6z"/>
	</g>
</g>
<path class="st0" d="M115.5,79.1c0,5-1.9,9.5-5.4,13L100,102.2c-3.5,3.5-8,5.4-12.8,5.4H22L25,96V17.2L23.2,10L22,5.4h65.1
	c1.5,0,2.9,0.2,4.2,0.5c1.6,0.3,3.1,0.9,4.5,1.7l-1.7,3.2L81.9,34L66.2,63.7l-2,3.8L51.5,46.1l-11.2,6.6l18.6,31.4l11.4-0.3l2-3.8
	l17.6-33L106,16.8l4,4.1c3.5,3.5,5.4,8,5.4,13L115.5,79.1z"/>
<polygon class="st0" points="160.6,103.2 126.3,103.2 128.8,92.6 128.8,21.1 126.3,10.8 160.6,10.8 158,21.2 158,92.6 "/>
<polygon class="st0" points="285.7,103.2 288.3,92.6 288.3,77.3 258.8,21.3 252.2,10.7 289,10.7 288.6,21.3 302.9,51.3 317,21.3 
	316.6,10.7 353.2,10.7 346.6,21.3 317.4,77 317.4,92.6 320.1,103.2 "/>
</svg>
